<?xml version="1.0" encoding="utf-8"?>
<!-- Generator: Adobe Illustrator 15.1.0, SVG Export Plug-In . SVG Version: 6.00 Build 0)  -->
<!DOCTYPE svg PUBLIC "-//W3C//DTD SVG 1.1//EN" "http://www.w3.org/Graphics/SVG/1.1/DTD/svg11.dtd">
<svg version="1.1" id="Layer_1" xmlns="http://www.w3.org/2000/svg" xmlns:xlink="http://www.w3.org/1999/xlink" x="0px" y="0px"
	 width="1024px" height="219px" viewBox="0 0 1024 219" enable-background="new 0 0 1024 219" xml:space="preserve">
<g enable-background="new    ">
	<path fill="#94703A" d="M123.885,80.186c0,3.438,0.1,6.243,0.3,8.412h-2.354c-0.534-5.308-1.219-9.238-2.053-11.792
		c-0.835-2.554-2.278-4.423-4.331-5.607c-2.053-1.185-5.2-1.778-9.438-1.778H99.55c-2.471,0-4.265,0.2-5.383,0.602
		c-1.119,0.4-1.886,1.177-2.303,2.328c-0.418,1.151-0.626,3.013-0.626,5.583v25.236h7.511c2.403,0,4.248-0.567,5.533-1.703
		c1.285-1.134,2.153-2.47,2.604-4.006c0.451-1.534,0.826-3.471,1.126-5.808c0.033-0.602,0.117-1.269,0.25-2.003h2.354
		c-0.234,3.338-0.351,6.56-0.351,9.664l0.05,4.856c0,3.605,0.216,8.462,0.651,14.571h-2.404l-0.15-1.402
		c-0.301-2.704-0.685-4.856-1.152-6.459c-0.468-1.603-1.36-2.946-2.679-4.031c-1.319-1.084-3.263-1.627-5.833-1.627h-7.511v23.584
		c0,2.57,0.267,4.439,0.801,5.607c0.534,1.169,1.502,1.971,2.904,2.403c1.402,0.435,3.622,0.701,6.659,0.802v2.053
		c-3.539-0.2-8.562-0.301-15.071-0.301c-5.875,0-10.249,0.101-13.119,0.301v-2.053c2.47-0.101,4.264-0.367,5.383-0.802
		c1.118-0.433,1.886-1.234,2.303-2.403c0.417-1.168,0.626-3.037,0.626-5.607V77.933c0-2.57-0.209-4.439-0.626-5.608
		c-0.417-1.168-1.185-1.969-2.303-2.403c-1.119-0.434-2.913-0.701-5.383-0.801v-2.053c6.71,0.2,16.624,0.3,29.743,0.3
		c10.047,0,17.191-0.1,21.431-0.3C124.118,71.941,123.885,76.313,123.885,80.186z"/>
	<path fill="#94703A" d="M150.553,80.186c-1.119,0.435-1.886,1.235-2.303,2.403c-0.418,1.169-0.626,3.038-0.626,5.608v40.608
		c0,2.57,0.208,4.431,0.626,5.583c0.417,1.151,1.185,1.928,2.303,2.328c1.118,0.4,2.912,0.601,5.383,0.601h6.459
		c4.739,0,8.419-1.394,11.041-4.181c2.62-2.787,4.214-7.452,4.782-13.995h2.354c-0.2,2.137-0.3,4.94-0.3,8.412
		c0,3.605,0.233,7.645,0.701,12.117c-4.44-0.2-11.934-0.301-22.482-0.301c-12.618,0-22.182,0.101-28.691,0.301v-2.053
		c2.47-0.101,4.264-0.367,5.383-0.802c1.118-0.433,1.886-1.234,2.303-2.403c0.417-1.168,0.626-3.037,0.626-5.607V88.197
		c0-2.57-0.209-4.439-0.626-5.608c-0.417-1.168-1.185-1.969-2.303-2.403c-1.119-0.434-2.913-0.701-5.383-0.801v-2.053
		c2.837,0.2,7.21,0.3,13.119,0.3c5.541,0,9.88-0.1,13.019-0.3v2.053C153.465,79.484,151.671,79.752,150.553,80.186z"/>
	<path fill="#94703A" d="M245.869,137.618v2.053c-2.804-0.2-6.459-0.301-10.965-0.301c-5.876,0-10.265,0.101-13.169,0.301v-2.053
		c2.57-0.101,4.439-0.417,5.608-0.951c1.168-0.534,1.752-1.469,1.752-2.805c0-1.234-0.468-2.854-1.402-4.856l-5.157-11.667H197.5
		L194.044,125c-1.135,2.638-1.702,4.824-1.702,6.56c0,3.604,2.654,5.625,7.961,6.059v2.053c-2.037-0.2-5.141-0.301-9.313-0.301
		c-4.173,0-7.144,0.101-8.913,0.301v-2.053c1.802-0.467,3.371-1.51,4.707-3.13c1.335-1.618,2.57-3.746,3.706-6.384l22.632-51.273
		h1.652l23.984,54.228C240.628,135.298,242.998,137.485,245.869,137.618z M210.067,89.198l-11.667,26.088h23.233L210.067,89.198z"/>
	<path fill="#94703A" d="M297.697,77.332v2.053c-1.335,0.334-2.462,0.868-3.379,1.603c-0.919,0.734-1.77,1.744-2.554,3.029
		c-0.785,1.285-1.678,3.079-2.679,5.382l-22.482,50.773h-1.652l-23.984-54.228c-1.836-4.239-4.189-6.426-7.06-6.56v-2.053
		c2.737,0.2,6.392,0.3,10.965,0.3c5.875,0,10.248-0.1,13.119-0.3v2.053c-2.571,0.1-4.432,0.418-5.583,0.951
		c-1.152,0.534-1.728,1.47-1.728,2.804c0,1.169,0.451,2.788,1.352,4.857l17.625,39.807l15.322-34.099
		c1.668-3.738,2.503-6.659,2.503-8.763c0-1.902-0.668-3.279-2.003-4.131c-1.335-0.852-3.355-1.327-6.059-1.427v-2.053
		c2.036,0.2,5.825,0.3,11.366,0.3C293.625,77.632,295.928,77.532,297.697,77.332z"/>
	<path fill="#94703A" d="M347.323,79.66c4.739,2.521,8.412,6.184,11.016,10.99c2.604,4.808,3.906,10.549,3.906,17.225
		c0,6.543-1.344,12.326-4.031,17.351c-2.688,5.024-6.427,8.93-11.216,11.717c-4.791,2.786-10.24,4.181-16.348,4.181
		c-6.309,0-11.826-1.261-16.549-3.78c-4.724-2.521-8.387-6.184-10.991-10.991c-2.604-4.807-3.906-10.548-3.906-17.225
		c0-6.542,1.343-12.334,4.031-17.375c2.687-5.04,6.417-8.945,11.191-11.717c4.773-2.771,10.215-4.155,16.324-4.155
		C337.058,75.88,342.582,77.14,347.323,79.66z M319.333,81.663c-3.172,2.621-5.617,6.276-7.335,10.966
		c-1.72,4.689-2.579,10.057-2.579,16.098c0,6.076,0.959,11.434,2.879,16.073c1.919,4.64,4.523,8.212,7.811,10.715
		c3.288,2.504,6.935,3.756,10.941,3.756c4.172,0,7.844-1.31,11.016-3.931c3.171-2.62,5.616-6.275,7.335-10.966
		c1.719-4.689,2.579-10.056,2.579-16.098c0-6.075-0.96-11.434-2.879-16.073c-1.92-4.64-4.523-8.212-7.811-10.716
		c-3.289-2.503-6.935-3.755-10.941-3.755C326.175,77.732,322.503,79.043,319.333,81.663z"/>
	<path fill="#94703A" d="M424.763,80.411c-1.152,0.584-1.945,1.544-2.378,2.879c-0.435,1.336-0.651,3.305-0.651,5.908v22.683
		c0,4.707-0.317,8.722-0.951,12.042c-0.634,3.322-1.703,6.218-3.205,8.688c-1.636,2.604-4.023,4.674-7.16,6.209
		c-3.138,1.535-6.677,2.304-10.615,2.304c-7.01,0-12.401-1.502-16.173-4.507c-2.037-1.835-3.597-3.78-4.682-5.833
		c-1.085-2.053-1.845-4.522-2.278-7.411c-0.434-2.887-0.651-6.617-0.651-11.19V88.197c0-2.57-0.209-4.439-0.626-5.608
		c-0.417-1.168-1.185-1.969-2.303-2.403c-1.119-0.434-2.913-0.701-5.383-0.801v-2.053c2.904,0.2,7.277,0.3,13.119,0.3
		c5.508,0,9.847-0.1,13.019-0.3v2.053c-2.471,0.1-4.256,0.367-5.358,0.801c-1.102,0.435-1.861,1.235-2.278,2.403
		c-0.417,1.169-0.625,3.038-0.625,5.608v25.736c0,5.075,0.342,9.264,1.026,12.568c0.684,3.305,2.136,5.967,4.356,7.986
		c2.22,2.021,5.483,3.029,9.789,3.029c6.876,0,11.7-2.145,14.471-6.434c2.771-4.289,4.156-10.307,4.156-18.051V89.198
		c0-2.503-0.293-4.438-0.876-5.808c-0.584-1.369-1.536-2.354-2.854-2.954c-1.319-0.602-3.18-0.952-5.583-1.052v-2.053
		c2.437,0.2,5.925,0.3,10.465,0.3c4.106,0,7.277-0.1,9.514-0.3v2.053C427.675,79.484,425.915,79.827,424.763,80.411z"/>
	<path fill="#94703A" d="M491.063,139.646c-1.652,0.984-3.664,1.478-6.034,1.478c-5.675,0-9.197-2.604-10.565-7.812l-3.154-12.818
		c-0.634-2.604-1.494-4.598-2.579-5.983c-1.085-1.385-2.412-2.336-3.981-2.854c-1.569-0.518-3.588-0.776-6.059-0.776h-5.858v17.926
		c0,2.57,0.208,4.439,0.626,5.607c0.417,1.169,1.185,1.971,2.303,2.403c1.118,0.435,2.912,0.701,5.383,0.802v2.053
		c-3.172-0.2-7.511-0.301-13.019-0.301c-5.909,0-10.282,0.101-13.119,0.301v-2.053c2.47-0.101,4.264-0.367,5.383-0.802
		c1.118-0.433,1.886-1.234,2.303-2.403c0.417-1.168,0.626-3.037,0.626-5.607V88.197c0-2.604-0.209-4.489-0.626-5.658
		c-0.417-1.168-1.176-1.961-2.278-2.378c-1.102-0.418-2.904-0.677-5.408-0.776v-2.053c2.837,0.2,7.01,0.3,12.518,0.3
		c1.168,0,4.657-0.05,10.465-0.15l4.005-0.05c5.107,0,9.438,0.668,12.994,2.003c3.555,1.336,6.226,3.163,8.012,5.482
		c1.785,2.321,2.679,4.982,2.679,7.987c0,2.503-0.635,4.932-1.903,7.285c-1.269,2.354-3.43,4.439-6.484,6.259
		c-3.054,1.82-7.068,3.029-12.042,3.63c1.168,0.034,2.336,0.15,3.505,0.351c3.638,0.568,6.517,1.67,8.637,3.305
		c2.12,1.637,3.613,4.273,4.481,7.912l2.253,9.313c0.567,2.404,1.168,4.099,1.803,5.083c0.634,0.984,1.468,1.477,2.503,1.477
		c1.703,0,3.588-1.168,5.658-3.505l1.402,1.352C494.192,137.234,492.715,138.662,491.063,139.646z M455.261,80.11
		c-0.918,0.484-1.552,1.345-1.903,2.579c-0.351,1.235-0.526,3.071-0.526,5.508v20.63h6.91c4.105,0,7.311-0.626,9.614-1.878
		s3.888-2.954,4.757-5.107c0.868-2.153,1.302-4.748,1.302-7.786c0-4.94-1.244-8.62-3.73-11.041c-2.487-2.42-6.584-3.63-12.292-3.63
		C457.556,79.385,456.179,79.627,455.261,80.11z"/>
	<path fill="#94703A" d="M524.414,76.405c1.52,0.351,2.779,0.785,3.781,1.302c1.002,0.518,2.104,1.177,3.305,1.978
		c1.602,0.969,2.77,1.452,3.505,1.452c0.634,0,1.118-0.366,1.452-1.102c0.333-0.733,0.601-1.885,0.801-3.455h2.354
		c-0.334,3.572-0.5,9.864-0.5,18.878h-2.354c-0.268-3.138-1.027-6.034-2.279-8.688c-1.251-2.654-3.088-4.808-5.508-6.46
		s-5.432-2.479-9.037-2.479c-2.404,0-4.557,0.443-6.459,1.327c-1.903,0.885-3.389,2.096-4.457,3.63
		c-1.069,1.536-1.602,3.272-1.602,5.208c0,2.137,0.533,3.98,1.602,5.533c1.068,1.552,2.437,2.888,4.105,4.005
		c1.67,1.119,4.057,2.529,7.16,4.231c1.503,0.769,2.604,1.369,3.305,1.803c4.24,2.236,7.652,4.256,10.24,6.059
		c2.586,1.803,4.656,3.848,6.209,6.134c1.553,2.287,2.328,4.932,2.328,7.937c0,3.738-0.935,6.918-2.804,9.538
		c-1.87,2.621-4.398,4.591-7.586,5.909c-3.188,1.318-6.735,1.978-10.64,1.978c-3.272,0-5.959-0.343-8.063-1.026
		c-2.103-0.684-4.089-1.61-5.958-2.779c-1.536-0.968-2.704-1.452-3.505-1.452c-0.634,0-1.119,0.359-1.452,1.077
		c-0.334,0.718-0.601,1.861-0.801,3.43h-2.354c0.267-3.338,0.4-10.849,0.4-22.532h2.354c0.467,6.343,2.169,11.466,5.107,15.372
		c2.937,3.905,7.46,5.858,13.57,5.858c2.169,0,4.213-0.417,6.133-1.252c1.92-0.834,3.48-2.119,4.682-3.855
		c1.202-1.735,1.803-3.906,1.803-6.51c0-2.27-0.659-4.272-1.978-6.009c-1.319-1.734-3.063-3.296-5.232-4.682
		c-2.171-1.385-5.208-3.079-9.112-5.082c-3.64-1.869-6.669-3.663-9.089-5.383c-2.42-1.719-4.381-3.763-5.883-6.134
		c-1.502-2.369-2.253-5.123-2.253-8.262c0-3.404,0.884-6.316,2.654-8.737c1.769-2.42,4.114-4.239,7.035-5.458
		c2.921-1.218,6.117-1.827,9.589-1.827C521.085,75.88,522.896,76.055,524.414,76.405z"/>
</g>
<g enable-background="new    ">
	<path fill="#94703A" d="M724.525,69.921c-1.118,0.435-1.886,1.235-2.303,2.403c-0.418,1.169-0.626,3.038-0.626,5.608v50.873
		c0,2.57,0.208,4.439,0.626,5.607c0.417,1.169,1.185,1.971,2.303,2.403c1.119,0.435,2.912,0.701,5.383,0.802v2.053
		c-2.837-0.2-7.21-0.301-13.118-0.301c-5.476,0-9.813,0.101-13.019,0.301v-2.053c2.47-0.101,4.264-0.367,5.383-0.802
		c1.117-0.433,1.885-1.234,2.303-2.403c0.418-1.168,0.626-3.037,0.626-5.607V104.17h-33.348v24.636c0,2.57,0.208,4.439,0.626,5.607
		c0.417,1.169,1.185,1.971,2.303,2.403c1.119,0.435,2.912,0.701,5.383,0.802v2.053c-3.138-0.2-7.478-0.301-13.018-0.301
		c-5.876,0-10.249,0.101-13.119,0.301v-2.053c2.47-0.101,4.264-0.367,5.383-0.802c1.117-0.433,1.885-1.234,2.303-2.403
		c0.417-1.168,0.626-3.037,0.626-5.607V77.933c0-2.57-0.209-4.439-0.626-5.608c-0.418-1.168-1.186-1.969-2.303-2.403
		c-1.119-0.434-2.913-0.701-5.383-0.801v-2.053c2.836,0.2,7.21,0.3,13.119,0.3c5.54,0,9.88-0.1,13.018-0.3v2.053
		c-2.471,0.1-4.264,0.367-5.383,0.801c-1.118,0.435-1.886,1.235-2.303,2.403c-0.418,1.169-0.626,3.038-0.626,5.608v24.185h33.348
		V77.933c0-2.57-0.208-4.439-0.626-5.608c-0.418-1.168-1.186-1.969-2.303-2.403c-1.119-0.434-2.913-0.701-5.383-0.801v-2.053
		c3.205,0.2,7.543,0.3,13.019,0.3c5.874,0,10.247-0.1,13.118-0.3v2.053C727.438,69.22,725.645,69.487,724.525,69.921z"/>
	<path fill="#94703A" d="M784.691,79.66c4.74,2.521,8.412,6.184,11.016,10.99c2.604,4.808,3.906,10.549,3.906,17.225
		c0,6.543-1.344,12.326-4.031,17.351s-6.426,8.93-11.216,11.717c-4.79,2.786-10.239,4.181-16.349,4.181
		c-6.309,0-11.825-1.261-16.549-3.78c-4.724-2.521-8.387-6.184-10.99-10.991c-2.604-4.807-3.906-10.548-3.906-17.225
		c0-6.542,1.344-12.334,4.031-17.375c2.687-5.04,6.417-8.945,11.191-11.717c4.773-2.771,10.215-4.155,16.323-4.155
		C774.428,75.88,779.951,77.14,784.691,79.66z M756.701,81.663c-3.172,2.621-5.616,6.276-7.335,10.966
		c-1.72,4.689-2.579,10.057-2.579,16.098c0,6.076,0.959,11.434,2.879,16.073s4.523,8.212,7.812,10.715
		c3.288,2.504,6.935,3.756,10.94,3.756c4.173,0,7.845-1.31,11.016-3.931c3.172-2.62,5.616-6.275,7.336-10.966
		c1.719-4.689,2.578-10.056,2.578-16.098c0-6.075-0.959-11.434-2.879-16.073s-4.523-8.212-7.811-10.716
		c-3.289-2.503-6.936-3.755-10.941-3.755C763.545,77.732,759.873,79.043,756.701,81.663z"/>
	<path fill="#94703A" d="M879.807,80.186c-1.118,0.435-1.886,1.235-2.303,2.403c-0.418,1.169-0.626,3.038-0.626,5.608v40.608
		c0,2.57,0.208,4.439,0.626,5.607c0.417,1.169,1.185,1.971,2.303,2.403c1.119,0.435,2.912,0.701,5.383,0.802v2.053
		c-3.204-0.2-7.544-0.301-13.019-0.301c-5.876,0-10.248,0.101-13.118,0.301v-2.053c2.47-0.101,4.256-0.367,5.357-0.802
		c1.102-0.433,1.86-1.234,2.278-2.403c0.417-1.168,0.626-3.037,0.626-5.607V83.791l-24.686,56.381h-1.652l-23.784-56.281v43.863
		c0,2.638,0.233,4.624,0.701,5.958c0.467,1.336,1.343,2.296,2.628,2.88s3.28,0.926,5.984,1.026v2.053
		c-2.438-0.2-5.926-0.301-10.465-0.301c-4.073,0-7.244,0.101-9.514,0.301v-2.053c2.369-0.101,4.131-0.442,5.282-1.026
		s1.944-1.544,2.378-2.88c0.434-1.334,0.651-3.32,0.651-5.958V88.197c0-2.57-0.209-4.439-0.626-5.608
		c-0.418-1.168-1.186-1.969-2.303-2.403c-1.119-0.434-2.913-0.701-5.383-0.801v-2.053c2.236,0.2,5.408,0.3,9.514,0.3
		c3.237,0,6.158-0.1,8.762-0.3l20.529,49.971l21.982-49.671h4.856c5.475,0,9.814-0.1,13.019-0.3v2.053
		C882.719,79.484,880.926,79.752,879.807,80.186z"/>
	<path fill="#94703A" d="M943.027,139.671c-4.44-0.2-11.935-0.301-22.482-0.301c-12.618,0-22.182,0.101-28.691,0.301v-2.053
		c2.471-0.101,4.264-0.367,5.383-0.802c1.118-0.433,1.886-1.234,2.303-2.403c0.418-1.168,0.627-3.037,0.627-5.607V88.197
		c0-2.57-0.209-4.439-0.627-5.608c-0.417-1.168-1.185-1.969-2.303-2.403c-1.119-0.434-2.912-0.701-5.383-0.801v-2.053
		c6.51,0.2,16.073,0.3,28.691,0.3c9.58,0,16.39-0.1,20.43-0.3c-0.469,4.105-0.701,7.794-0.701,11.065c0,2.671,0.1,4.79,0.301,6.359
		h-2.354c-0.368-3.806-1.011-6.793-1.928-8.963c-0.919-2.17-2.237-3.73-3.956-4.682c-1.72-0.951-3.998-1.428-6.835-1.428h-7.511
		c-2.471,0-4.265,0.192-5.383,0.576s-1.886,1.16-2.304,2.328c-0.418,1.169-0.625,3.038-0.625,5.608v19.077h8.512
		c2.17,0,3.848-0.559,5.032-1.678c1.185-1.117,1.978-2.353,2.378-3.705c0.4-1.352,0.768-3.046,1.102-5.082h2.354
		c-0.233,2.671-0.35,5.207-0.35,7.61l0.05,3.856c0,2.737,0.216,6.576,0.651,11.516h-2.404c-0.268-2.103-0.643-3.888-1.127-5.357
		c-0.484-1.469-1.335-2.687-2.553-3.655c-1.219-0.968-2.93-1.452-5.133-1.452h-8.512v19.479c0,2.57,0.207,4.431,0.625,5.583
		c0.418,1.151,1.186,1.928,2.304,2.328s2.912,0.601,5.383,0.601h7.511c3.371,0,6.059-0.542,8.062-1.627s3.521-2.854,4.557-5.308
		c1.034-2.454,1.753-5.85,2.153-10.189h2.354c-0.201,1.836-0.301,4.289-0.301,7.36C942.326,131.159,942.559,135.198,943.027,139.671
		z"/>
</g>
<g enable-background="new    ">
	<path fill="#94703A" d="M614.613,116.218c0.088,0.634-0.877,2.278-2.896,4.936c-3.01,3.964-5.982,6.148-8.92,6.556
		c-1.23,0.17-2.355,0.084-3.373-0.26c-4.211,8.142-8.619,12.532-13.223,13.17c-2.381,0.33-4.553-0.368-6.51-2.098
		c-1.959-1.729-3.129-3.963-3.508-6.699c-0.846-6.107,2.342-12.551,9.568-19.333c5.074-4.787,9.438-7.432,13.086-7.938
		c3.41-0.473,5.369,1.115,5.875,4.764c0.633,4.561-1.006,10.386-4.914,17.476c0.859,0.365,1.785,0.479,2.777,0.342
		c1.783-0.247,3.754-1.366,5.91-3.355c2.154-1.992,3.826-4.258,5.016-6.801c0.361-0.613,0.641-0.936,0.84-0.963
		C614.5,115.992,614.592,116.061,614.613,116.218z M603.838,109.557c-0.445-3.212-2.117-4.618-5.012-4.216
		c-3.609,0.5-7.533,4.561-11.771,12.181c-4.238,7.622-6.031,13.793-5.377,18.512c0.379,2.734,1.879,3.923,4.496,3.56
		c4.283-0.594,8.473-4.771,12.572-12.534c-1.328-1.11-2.084-2.34-2.271-3.688c-0.268-1.941,0.227-4.053,1.488-6.33
		c1.262-2.275,2.625-3.516,4.092-3.72c0.635-0.088,1.127,0.248,1.475,1.009C603.971,112.854,604.074,111.264,603.838,109.557z"/>
	<path fill="#94703A" d="M646.211,68.457c0.49,3.531-1.396,8.309-5.654,14.335c-4.26,6.027-10.082,12.159-17.465,18.398l10.23-1.418
		l-0.41,0.966l-10.352,1.435l-3.568,10.135c-4.369,12.531-8.266,22.055-11.689,28.57c-3.422,6.518-7.588,12.481-12.5,17.893
		c-6.777,7.404-13.457,11.565-20.045,12.479c-2.934,0.407-4.461,0.184-4.58-0.668c-0.055-0.397,0.137-0.625,0.572-0.686
		c0.318-0.044,0.563-0.039,0.73,0.02c1.486,0.218,2.863,0.238,4.133,0.063c5.357-0.742,10.42-3.89,15.189-9.44
		c2.926-3.397,5.363-7.252,7.313-11.563c1.623-3.46,5.305-12.779,11.043-27.967l6.855-17.926l-6.365,0.882l0.352-0.958l6.486-0.899
		c3.885-9.311,8.467-17.535,13.744-24.673c5.277-7.137,9.582-10.938,12.916-11.4C644.93,65.785,645.953,66.593,646.211,68.457z
		 M645.48,68.437c-0.182-1.309-0.928-1.872-2.236-1.69c-3.014,0.418-6.641,4.438-10.883,12.059
		c-2.096,3.848-5.082,10.89-8.959,21.128c5.879-5.423,11.115-11.404,15.709-17.941C643.703,75.454,645.826,70.936,645.48,68.437z"/>
</g>
<g enable-background="new    ">
	<path fill="none" stroke="#94703A" stroke-miterlimit="10" d="M614.613,116.218c0.088,0.634-0.877,2.278-2.896,4.936
		c-3.01,3.964-5.982,6.148-8.92,6.556c-1.23,0.17-2.355,0.084-3.373-0.26c-4.211,8.142-8.619,12.532-13.223,13.17
		c-2.381,0.33-4.553-0.368-6.51-2.098c-1.959-1.729-3.129-3.963-3.508-6.699c-0.846-6.107,2.342-12.551,9.568-19.333
		c5.074-4.787,9.438-7.432,13.086-7.938c3.41-0.473,5.369,1.115,5.875,4.764c0.633,4.561-1.006,10.386-4.914,17.476
		c0.859,0.365,1.785,0.479,2.777,0.342c1.783-0.247,3.754-1.366,5.91-3.355c2.154-1.992,3.826-4.258,5.016-6.801
		c0.361-0.613,0.641-0.936,0.84-0.963C614.5,115.992,614.592,116.061,614.613,116.218z M603.838,109.557
		c-0.445-3.212-2.117-4.618-5.012-4.216c-3.609,0.5-7.533,4.561-11.771,12.181c-4.238,7.622-6.031,13.793-5.377,18.512
		c0.379,2.734,1.879,3.923,4.496,3.56c4.283-0.594,8.473-4.771,12.572-12.534c-1.328-1.11-2.084-2.34-2.271-3.688
		c-0.268-1.941,0.227-4.053,1.488-6.33c1.262-2.275,2.625-3.516,4.092-3.72c0.635-0.088,1.127,0.248,1.475,1.009
		C603.971,112.854,604.074,111.264,603.838,109.557z"/>
	<path fill="none" stroke="#94703A" stroke-miterlimit="10" d="M646.211,68.457c0.49,3.531-1.396,8.309-5.654,14.335
		c-4.26,6.027-10.082,12.159-17.465,18.398l10.23-1.418l-0.41,0.966l-10.352,1.435l-3.568,10.135
		c-4.369,12.531-8.266,22.055-11.689,28.57c-3.422,6.518-7.588,12.481-12.5,17.893c-6.777,7.404-13.457,11.565-20.045,12.479
		c-2.934,0.407-4.461,0.184-4.58-0.668c-0.055-0.397,0.137-0.625,0.572-0.686c0.318-0.044,0.563-0.039,0.73,0.02
		c1.486,0.218,2.863,0.238,4.133,0.063c5.357-0.742,10.42-3.89,15.189-9.44c2.926-3.397,5.363-7.252,7.313-11.563
		c1.623-3.46,5.305-12.779,11.043-27.967l6.855-17.926l-6.365,0.882l0.352-0.958l6.486-0.899
		c3.885-9.311,8.467-17.535,13.744-24.673c5.277-7.137,9.582-10.938,12.916-11.4C644.93,65.785,645.953,66.593,646.211,68.457z
		 M645.48,68.437c-0.182-1.309-0.928-1.872-2.236-1.69c-3.014,0.418-6.641,4.438-10.883,12.059
		c-2.096,3.848-5.082,10.89-8.959,21.128c5.879-5.423,11.115-11.404,15.709-17.941C643.703,75.454,645.826,70.936,645.48,68.437z"/>
</g>
</svg>
